<?xml version="1.0" encoding="UTF-8"?>
<!DOCTYPE svg PUBLIC "-//W3C//DTD SVG 1.1//EN" "http://www.w3.org/Graphics/SVG/1.1/DTD/svg11.dtd">
<svg xmlns="http://www.w3.org/2000/svg" version="1.1" width="539px" height="463px" style="shape-rendering:geometricPrecision; text-rendering:geometricPrecision; image-rendering:optimizeQuality; fill-rule:evenodd; clip-rule:evenodd" xmlns:xlink="http://www.w3.org/1999/xlink">
<g><path style="opacity:0.997" fill="#fbfbfb" d="M 311.5,32.5 C 311.881,33.9311 312.881,34.7645 314.5,35C 318.086,36.1076 321.753,36.6076 325.5,36.5C 330.534,37.3982 335.201,39.0649 339.5,41.5C 348.316,46.9074 357.649,51.2408 367.5,54.5C 370.315,57.747 373.982,59.747 378.5,60.5C 386.037,64.7665 393.037,69.7665 399.5,75.5C 399.5,76.8333 399.5,78.1667 399.5,79.5C 402.361,79.5126 403.361,80.6793 402.5,83C 403.449,83.6172 404.282,83.4506 405,82.5C 407.407,84.4253 409.907,86.0919 412.5,87.5C 414.5,88.8333 416.167,90.5 417.5,92.5C 417.195,96.2007 418.862,98.534 422.5,99.5C 425.223,102.22 427.557,105.22 429.5,108.5C 430.622,109.63 431.956,110.297 433.5,110.5C 436.241,112.975 438.241,115.975 439.5,119.5C 438.993,123.67 440.659,126.67 444.5,128.5C 443.674,129.451 443.508,130.451 444,131.5C 446.047,134.419 448.547,136.752 451.5,138.5C 454.341,142.849 456.674,147.516 458.5,152.5C 458.326,156.36 459.659,159.36 462.5,161.5C 462.099,165.651 463.433,168.985 466.5,171.5C 466.5,171.833 466.5,172.167 466.5,172.5C 466.583,177.95 467.916,182.95 470.5,187.5C 470.275,193.765 471.609,199.432 474.5,204.5C 473.911,208.971 474.577,212.971 476.5,216.5C 478.477,228.899 478.81,241.232 477.5,253.5C 476.223,254.694 475.556,256.36 475.5,258.5C 474.74,264.812 474.406,271.145 474.5,277.5C 474.5,277.833 474.5,278.167 474.5,278.5C 469.531,283.909 467.698,290.242 469,297.5C 466.791,302.734 464.791,308.067 463,313.5C 462.505,315.473 462.338,317.473 462.5,319.5C 462.5,319.833 462.5,320.167 462.5,320.5C 458.583,322.522 456.916,325.855 457.5,330.5C 457.672,331.492 457.338,332.158 456.5,332.5C 455.85,332.804 455.183,333.137 454.5,333.5C 452.848,338.138 450.681,342.472 448,346.5C 444.851,348.92 443.351,352.253 443.5,356.5C 441.876,356.36 440.71,357.027 440,358.5C 439.667,358.167 439.333,357.833 439,357.5C 438.964,361.355 437.131,363.855 433.5,365C 434.536,366.776 434.536,368.609 433.5,370.5C 429.554,370.488 427.887,372.488 428.5,376.5C 425.05,375.756 423.384,377.09 423.5,380.5C 422.5,380.5 421.5,380.5 420.5,380.5C 419.167,383.5 417.833,386.5 416.5,389.5C 413.5,393.167 410.167,396.5 406.5,399.5C 405.127,399.343 403.793,399.51 402.5,400C 400.416,401.748 398.416,403.582 396.5,405.5C 394.167,404.5 393.5,405.167 394.5,407.5C 391.098,407.56 389.098,409.56 388.5,413.5C 388.5,414.167 388.167,414.5 387.5,414.5C 386.417,414.461 385.417,414.127 384.5,413.5C 383.614,414.325 383.281,415.325 383.5,416.5C 381.027,416.088 379.694,417.088 379.5,419.5C 375.836,422.335 371.836,424.668 367.5,426.5C 363.797,427.146 360.797,428.812 358.5,431.5C 352.136,434.737 345.47,437.403 338.5,439.5C 333.903,438.923 329.736,439.923 326,442.5C 323.628,441.233 321.462,441.4 319.5,443C 319.833,443.333 320.167,443.667 320.5,444C 306.512,448.283 292.178,449.95 277.5,449C 273.448,447.614 270.281,445.114 268,441.5C 267.29,442.973 266.124,443.64 264.5,443.5C 263.089,441.086 261.089,439.419 258.5,438.5C 258.715,436.821 258.048,435.821 256.5,435.5C 254.726,432.074 253.726,428.407 253.5,424.5C 253.665,421.15 253.498,417.817 253,414.5C 252.578,412.574 251.411,411.574 249.5,411.5C 249.5,411.167 249.5,410.833 249.5,410.5C 247.676,395.93 247.009,381.264 247.5,366.5C 245.167,366.5 242.833,366.5 240.5,366.5C 240.832,304.331 240.499,242.331 239.5,180.5C 219.007,179.503 198.34,179.169 177.5,179.5C 176.551,181.737 175.884,184.071 175.5,186.5C 173.427,188.58 171.093,190.246 168.5,191.5C 163.594,191.985 158.927,193.318 154.5,195.5C 152.536,194.527 150.536,194.694 148.5,196C 144.179,196.499 139.846,196.666 135.5,196.5C 133.017,193.259 129.684,191.592 125.5,191.5C 118.772,188.439 114.106,183.439 111.5,176.5C 111.836,172.833 111.003,169.5 109,166.5C 107.519,157.723 108.519,150.057 112,143.5C 112.833,142.667 113.667,141.833 114.5,141C 113.167,139.16 113.334,138.66 115,139.5C 116.756,138.579 116.923,137.412 115.5,136C 116.906,134.022 117.906,131.855 118.5,129.5C 122.893,128.136 126.893,125.969 130.5,123C 139.677,120.562 149.011,119.896 158.5,121C 162.082,122.803 165.749,124.303 169.5,125.5C 172.81,127.146 175.477,129.48 177.5,132.5C 177.539,133.583 177.873,134.583 178.5,135.5C 234.692,136.173 290.859,136.839 347,137.5C 350.662,133.334 354.162,129 357.5,124.5C 362.05,124.893 365.383,123.226 367.5,119.5C 376.857,119.35 386.191,119.683 395.5,120.5C 400.665,122.338 404.999,125.338 408.5,129.5C 409.549,133.984 411.549,137.984 414.5,141.5C 415.325,142.386 416.325,142.719 417.5,142.5C 418.88,150.769 419.546,159.102 419.5,167.5C 419.737,168.791 419.404,169.791 418.5,170.5C 416.704,171.793 415.037,173.293 413.5,175C 414.603,176.68 414.27,178.18 412.5,179.5C 410.902,178.515 409.235,178.349 407.5,179C 411.783,179.689 412.283,181.189 409,183.5C 408.667,183.167 408.333,182.833 408,182.5C 407.781,183.938 407.281,185.271 406.5,186.5C 404.786,185.391 404.119,186.058 404.5,188.5C 403.448,188.351 402.448,188.517 401.5,189C 399.41,190.588 397.743,192.422 396.5,194.5C 391.529,195.888 386.362,196.554 381,196.5C 375.082,196.278 369.249,195.611 363.5,194.5C 362.826,192.976 361.826,191.642 360.5,190.5C 355.359,188.525 351.692,185.025 349.5,180C 329.836,179.5 310.169,179.333 290.5,179.5C 290.5,241.833 290.5,304.167 290.5,366.5C 287.881,366.232 285.381,366.565 283,367.5C 282.667,379.5 282.333,391.5 282,403.5C 281.338,405.813 280.838,408.146 280.5,410.5C 277.476,410.175 275.809,411.508 275.5,414.5C 275.643,417.406 276.643,419.739 278.5,421.5C 279.401,422.29 280.068,423.29 280.5,424.5C 281.292,426.257 282.625,427.591 284.5,428.5C 289.705,428.689 295.038,428.189 300.5,427C 308.47,424.399 316.47,421.899 324.5,419.5C 327.081,418.544 329.581,418.544 332,419.5C 332.317,417.699 332.984,417.366 334,418.5C 335.634,415.539 338.134,413.705 341.5,413C 342.252,412.329 342.586,411.496 342.5,410.5C 346.773,410.527 350.107,408.861 352.5,405.5C 354.938,403.733 357.605,402.399 360.5,401.5C 366.495,400.175 371.829,397.508 376.5,393.5C 377.386,392.675 377.719,391.675 377.5,390.5C 385.174,382.826 393.174,375.493 401.5,368.5C 403.914,367.089 405.581,365.089 406.5,362.5C 408.862,359.808 411.196,357.141 413.5,354.5C 417.391,353.273 419.391,350.606 419.5,346.5C 420.669,343.489 422.336,340.822 424.5,338.5C 425.496,338.586 426.329,338.252 427,337.5C 428.341,334.978 429.174,332.311 429.5,329.5C 430.376,329.631 431.043,329.298 431.5,328.5C 436.291,319.616 440.791,310.616 445,301.5C 445.499,297.848 445.665,294.182 445.5,290.5C 447.383,286.587 448.716,282.254 449.5,277.5C 449.457,276.584 449.124,275.917 448.5,275.5C 448.5,274.833 448.833,274.5 449.5,274.5C 450.117,274.389 450.617,274.056 451,273.5C 454.684,246.384 453.851,219.384 448.5,192.5C 447.376,190.631 446.543,188.631 446,186.5C 445.617,187.056 445.117,187.389 444.5,187.5C 444.975,184.918 444.308,182.918 442.5,181.5C 440.385,176.733 438.719,171.733 437.5,166.5C 437.494,163.15 436.494,160.15 434.5,157.5C 434.709,156.914 435.043,156.414 435.5,156C 434.115,154.351 432.449,153.184 430.5,152.5C 422.314,138.143 412.647,124.81 401.5,112.5C 401.512,109.858 400.179,108.525 397.5,108.5C 390.427,101.782 383.094,95.2823 375.5,89C 366.66,83.6369 357.993,78.1369 349.5,72.5C 345.218,68.2758 339.884,65.9425 333.5,65.5C 305.76,55.2865 277.093,51.4532 247.5,54C 234.68,55.4143 222.014,57.581 209.5,60.5C 205.267,61.7485 200.934,62.5819 196.5,63C 195.177,63.8159 194.511,64.9826 194.5,66.5C 192.62,66.2291 191.287,66.8958 190.5,68.5C 188.046,70.0598 185.38,71.0598 182.5,71.5C 178.427,72.3669 174.427,73.5336 170.5,75C 171.252,75.6708 171.586,76.5041 171.5,77.5C 170.101,78.8897 168.434,79.8897 166.5,80.5C 161.463,80.828 157.796,83.1613 155.5,87.5C 155.167,88.5 154.5,89.1667 153.5,89.5C 150.232,91.033 146.899,92.3663 143.5,93.5C 143.5,94.8333 143.5,96.1667 143.5,97.5C 143.167,98.5 142.5,99.1667 141.5,99.5C 137.194,99.6229 134.527,101.623 133.5,105.5C 132.5,105.5 131.5,105.5 130.5,105.5C 130.5,106.5 130.5,107.5 130.5,108.5C 129.5,108.5 128.5,108.5 127.5,108.5C 127.567,111.766 125.901,113.266 122.5,113C 122.957,113.414 123.291,113.914 123.5,114.5C 122.24,115.382 121.074,116.382 120,117.5C 117.218,121.128 115.052,125.128 113.5,129.5C 113.5,129.833 113.5,130.167 113.5,130.5C 112.5,130.5 111.5,130.5 110.5,130.5C 110.5,131.833 110.5,133.167 110.5,134.5C 110.5,134.833 110.5,135.167 110.5,135.5C 109.167,135.5 107.833,135.5 106.5,135.5C 106.762,136.978 106.429,138.311 105.5,139.5C 103.439,142.597 101.106,145.43 98.5,148C 99.1383,149.707 99.1383,151.54 98.5,153.5C 98.7373,154.791 98.404,155.791 97.5,156.5C 94.8185,158.162 92.8185,160.495 91.5,163.5C 90.1789,167.792 89.1789,172.125 88.5,176.5C 86.0797,181.563 83.913,186.896 82,192.5C 76.1636,215.985 74.997,239.651 78.5,263.5C 78.7464,269.902 79.5797,276.235 81,282.5C 84.259,291.536 86.5923,300.869 88,310.5C 90.1585,314.81 92.8251,318.81 96,322.5C 96.5329,326.391 98.3662,329.391 101.5,331.5C 105.402,336.96 109.069,342.627 112.5,348.5C 112.678,351.216 113.178,353.883 114,356.5C 116.172,357.509 117.338,359.176 117.5,361.5C 118.552,361.351 119.552,361.517 120.5,362C 122.036,365.234 124.369,367.734 127.5,369.5C 128.731,370.651 128.731,371.817 127.5,373C 130.848,374.61 134.181,376.11 137.5,377.5C 143.903,383.244 150.569,388.577 157.5,393.5C 158.06,395.801 158.56,398.134 159,400.5C 159.689,399.643 160.522,398.977 161.5,398.5C 163.415,400.472 165.749,401.472 168.5,401.5C 169.609,401.557 170.609,401.89 171.5,402.5C 172.44,404.572 173.94,406.239 176,407.5C 176.333,407.167 176.667,406.833 177,406.5C 182.199,410.689 188.199,413.355 195,414.5C 196.07,414.472 196.903,414.139 197.5,413.5C 198.167,410.833 199.833,409.167 202.5,408.5C 207.296,406.771 212.296,405.771 217.5,405.5C 220.167,405.667 222.833,405.833 225.5,406C 229.967,407.983 234.3,410.15 238.5,412.5C 240.25,413.659 241.25,415.326 241.5,417.5C 241.773,419.451 241.107,420.951 239.5,422C 241.478,422.481 242.811,423.647 243.5,425.5C 245.218,433.833 243.718,441.5 239,448.5C 235.802,449.23 234.302,451.23 234.5,454.5C 226.855,460.495 218.522,461.828 209.5,458.5C 207.468,455.144 204.468,453.477 200.5,453.5C 197.45,451.451 195.117,448.784 193.5,445.5C 193.625,442.392 192.292,440.392 189.5,439.5C 184.09,437.148 178.756,434.815 173.5,432.5C 173.586,431.504 173.252,430.671 172.5,430C 170.956,429.71 169.623,429.044 168.5,428C 169.654,427.086 169.487,426.253 168,425.5C 167.667,425.833 167.333,426.167 167,426.5C 164.313,425.287 161.48,424.62 158.5,424.5C 153.991,422.081 149.658,419.414 145.5,416.5C 143.372,413.87 141.039,411.37 138.5,409C 137.207,408.51 135.873,408.343 134.5,408.5C 129.514,404.845 124.847,400.845 120.5,396.5C 117.5,390.167 112.833,385.5 106.5,382.5C 106.108,380.821 105.608,379.154 105,377.5C 102.007,375.864 101.007,373.531 102,370.5C 101.667,370.833 101.333,371.167 101,371.5C 99.4157,370.139 97.5824,369.472 95.5,369.5C 94.8333,366.833 94.1667,364.167 93.5,361.5C 92.5,361.5 91.5,361.5 90.5,361.5C 90.8174,358.454 89.4841,356.787 86.5,356.5C 86.6144,352.386 84.9478,349.386 81.5,347.5C 81.3822,344.312 80.5489,341.312 79,338.5C 76.7373,334.968 74.2373,331.635 71.5,328.5C 66.1383,318.088 62.1383,307.088 59.5,295.5C 57.3407,281.276 55.6741,266.942 54.5,252.5C 55.0168,245.81 55.0168,238.977 54.5,232C 54.5321,224.798 55.0321,217.631 56,210.5C 59.0311,197.622 61.5311,184.955 63.5,172.5C 68.1854,155.799 75.5187,140.466 85.5,126.5C 87.9501,124.371 89.6167,121.704 90.5,118.5C 106.274,96.0583 125.607,77.3916 148.5,62.5C 152.57,61.4758 155.904,59.4758 158.5,56.5C 200.084,31.6824 245.084,22.5157 293.5,29C 299.676,29.4687 305.676,30.6354 311.5,32.5 Z M 150.5,149.5 C 150.5,150.167 150.833,150.5 151.5,150.5C 155.011,153.195 156.344,156.862 155.5,161.5C 150.908,167.298 145.575,167.964 139.5,163.5C 136.479,153.533 140.146,148.867 150.5,149.5 Z M 385.5,150.5 C 387.29,152.272 388.623,154.272 389.5,156.5C 389.008,160.831 387.008,164.164 383.5,166.5C 380.162,166.935 377.162,166.268 374.5,164.5C 371.568,161.239 370.901,157.572 372.5,153.5C 376.039,149.464 380.372,148.464 385.5,150.5 Z"/></g>
<g><path style="opacity:0.404" fill="#b7b3b3" d="M 311.5,32.5 C 316.445,33.2327 321.112,34.566 325.5,36.5C 321.753,36.6076 318.086,36.1076 314.5,35C 312.881,34.7645 311.881,33.9311 311.5,32.5 Z"/></g>
<g><path style="opacity:0.416" fill="#afacac" d="M 339.5,41.5 C 349.644,44.2405 358.977,48.5738 367.5,54.5C 357.649,51.2408 348.316,46.9074 339.5,41.5 Z"/></g>
<g><path style="opacity:0.453" fill="#b2adae" d="M 367.5,54.5 C 371.429,56.1329 375.096,58.1329 378.5,60.5C 373.982,59.747 370.315,57.747 367.5,54.5 Z"/></g>
<g><path style="opacity:0.184" fill="#9f9c9c" d="M 158.5,56.5 C 155.904,59.4758 152.57,61.4758 148.5,62.5C 151.161,59.4977 154.495,57.4977 158.5,56.5 Z"/></g>
<g><path style="opacity:0.78" fill="#aeabaa" d="M 209.5,60.5 C 204.735,62.871 199.735,64.871 194.5,66.5C 194.511,64.9826 195.177,63.8159 196.5,63C 200.934,62.5819 205.267,61.7485 209.5,60.5 Z"/></g>
<g><path style="opacity:0.004" fill="#3c3a29" d="M 194.5,66.5 C 193.486,67.6737 192.153,68.3404 190.5,68.5C 191.287,66.8958 192.62,66.2291 194.5,66.5 Z"/></g>
<g><path style="opacity:0.353" fill="#aba7a6" d="M 333.5,65.5 C 339.884,65.9425 345.218,68.2758 349.5,72.5C 343.864,70.6779 338.531,68.3446 333.5,65.5 Z"/></g>
<g><path style="opacity:0.863" fill="#b4b0ad" d="M 182.5,71.5 C 179.322,74.2583 175.655,76.2583 171.5,77.5C 171.586,76.5041 171.252,75.6708 170.5,75C 174.427,73.5336 178.427,72.3669 182.5,71.5 Z"/></g>
<g><path style="opacity:0.978" fill="#c9c4c5" d="M 399.5,75.5 C 404.46,78.7923 408.793,82.7923 412.5,87.5C 409.907,86.0919 407.407,84.4253 405,82.5C 404.282,83.4506 403.449,83.6172 402.5,83C 403.361,80.6793 402.361,79.5126 399.5,79.5C 399.5,78.1667 399.5,76.8333 399.5,75.5 Z"/></g>
<g><path style="opacity:0.475" fill="#b3b0af" d="M 166.5,80.5 C 163.35,83.5792 159.683,85.9125 155.5,87.5C 157.796,83.1613 161.463,80.828 166.5,80.5 Z"/></g>
<g><path style="opacity:0.749" fill="#a7a1a1" d="M 153.5,89.5 C 150.54,92.6448 147.207,95.3115 143.5,97.5C 143.5,96.1667 143.5,94.8333 143.5,93.5C 146.899,92.3663 150.232,91.033 153.5,89.5 Z"/></g>
<g><path style="opacity:0.039" fill="#bdb8b7" d="M 417.5,92.5 C 423.176,98.177 428.509,104.177 433.5,110.5C 431.956,110.297 430.622,109.63 429.5,108.5C 427.557,105.22 425.223,102.22 422.5,99.5C 418.862,98.534 417.195,96.2007 417.5,92.5 Z"/></g>
<g><path style="opacity:0.314" fill="#717171" d="M 397.5,108.5 C 400.179,108.525 401.512,109.858 401.5,112.5C 399.833,111.5 398.5,110.167 397.5,108.5 Z"/></g>
<g><path style="opacity:0.99" fill="#bdb6b6" d="M 141.5,99.5 C 136.562,103.936 131.729,108.603 127,113.5C 123.011,119.317 118.511,124.651 113.5,129.5C 115.052,125.128 117.218,121.128 120,117.5C 121.074,116.382 122.24,115.382 123.5,114.5C 123.291,113.914 122.957,113.414 122.5,113C 125.901,113.266 127.567,111.766 127.5,108.5C 128.5,108.5 129.5,108.5 130.5,108.5C 130.5,107.5 130.5,106.5 130.5,105.5C 131.5,105.5 132.5,105.5 133.5,105.5C 134.527,101.623 137.194,99.6229 141.5,99.5 Z"/></g>
<g><path style="opacity:0.473" fill="#9d9696" d="M 395.5,120.5 C 386.191,119.683 376.857,119.35 367.5,119.5C 376.944,115.519 386.277,115.852 395.5,120.5 Z"/></g>
<g><path style="opacity:0.878" fill="#cac7c7" d="M 169.5,125.5 C 165.749,124.303 162.082,122.803 158.5,121C 149.011,119.896 139.677,120.562 130.5,123C 126.893,125.969 122.893,128.136 118.5,129.5C 128.588,118.974 140.921,115.14 155.5,118C 160.951,119.223 165.618,121.723 169.5,125.5 Z"/></g>
<g><path style="opacity:0.463" fill="#a8a4a5" d="M 367.5,119.5 C 365.383,123.226 362.05,124.893 357.5,124.5C 360.247,121.793 363.58,120.127 367.5,119.5 Z"/></g>
<g><path style="opacity:0.039" fill="#6c6b6b" d="M 90.5,118.5 C 89.6167,121.704 87.9501,124.371 85.5,126.5C 86.3833,123.296 88.0499,120.629 90.5,118.5 Z"/></g>
<g><path style="opacity:0.263" fill="#8d7b7a" d="M 113.5,130.5 C 112.974,132.23 111.974,133.564 110.5,134.5C 110.5,133.167 110.5,131.833 110.5,130.5C 111.5,130.5 112.5,130.5 113.5,130.5 Z"/></g>
<g><path style="opacity:0.814" fill="#cac4c5" d="M 439.5,119.5 C 444.283,125.294 448.283,131.628 451.5,138.5C 448.547,136.752 446.047,134.419 444,131.5C 443.508,130.451 443.674,129.451 444.5,128.5C 440.659,126.67 438.993,123.67 439.5,119.5 Z"/></g>
<g><path style="opacity:0.195" fill="#e6e1e3" d="M 357.5,124.5 C 354.162,129 350.662,133.334 347,137.5C 290.859,136.839 234.692,136.173 178.5,135.5C 177.873,134.583 177.539,133.583 177.5,132.5C 178.5,132.833 179.167,133.5 179.5,134.5C 207.498,135.167 235.665,135.5 264,135.5C 292.508,135.5 320.675,134.833 348.5,133.5C 351.14,130.194 354.14,127.194 357.5,124.5 Z"/></g>
<g><path style="opacity:0.016" fill="#484747" d="M 348.5,133.5 C 320.675,134.833 292.508,135.5 264,135.5C 235.665,135.5 207.498,135.167 179.5,134.5C 235.905,134.829 292.238,134.496 348.5,133.5 Z"/></g>
<g><path style="opacity:0.835" fill="#c9c6c5" d="M 408.5,129.5 C 412.662,133.001 415.662,137.335 417.5,142.5C 416.325,142.719 415.325,142.386 414.5,141.5C 411.549,137.984 409.549,133.984 408.5,129.5 Z"/></g>
<g><path style="opacity:0.49" fill="#b8b5b5" d="M 110.5,135.5 C 106.074,141.251 102.074,147.251 98.5,153.5C 99.1383,151.54 99.1383,149.707 98.5,148C 101.106,145.43 103.439,142.597 105.5,139.5C 106.429,138.311 106.762,136.978 106.5,135.5C 107.833,135.5 109.167,135.5 110.5,135.5 Z"/></g>
<g><path style="opacity:0.851" fill="#d4ced0" d="M 118.5,129.5 C 117.906,131.855 116.906,134.022 115.5,136C 116.923,137.412 116.756,138.579 115,139.5C 113.334,138.66 113.167,139.16 114.5,141C 113.667,141.833 112.833,142.667 112,143.5C 108.519,150.057 107.519,157.723 109,166.5C 111.003,169.5 111.836,172.833 111.5,176.5C 103.458,161.859 104.291,147.525 114,133.5C 115.049,131.616 116.549,130.282 118.5,129.5 Z"/></g>
<g><path style="opacity:0.376" fill="#b2afaf" d="M 150.5,149.5 C 140.146,148.867 136.479,153.533 139.5,163.5C 137.748,163.582 136.748,162.749 136.5,161C 137.127,157.483 137.793,153.983 138.5,150.5C 140.957,148.938 143.624,147.938 146.5,147.5C 148.333,147.585 149.666,148.252 150.5,149.5 Z"/></g>
<g><path style="opacity:0.196" fill="#c7bebf" d="M 385.5,150.5 C 380.372,148.464 376.039,149.464 372.5,153.5C 372.5,151.5 372.5,149.5 372.5,147.5C 376.514,147.334 380.514,147.501 384.5,148C 385.252,148.671 385.586,149.504 385.5,150.5 Z"/></g>
<g><path style="opacity:0.065" fill="#b6b2b2" d="M 151.5,150.5 C 156.655,151.797 158.488,155.13 157,160.5C 156.617,161.056 156.117,161.389 155.5,161.5C 156.344,156.862 155.011,153.195 151.5,150.5 Z"/></g>
<g><path style="opacity:0.933" fill="#bab9b7" d="M 430.5,152.5 C 432.449,153.184 434.115,154.351 435.5,156C 435.043,156.414 434.709,156.914 434.5,157.5C 436.494,160.15 437.494,163.15 437.5,166.5C 434.659,162.151 432.326,157.484 430.5,152.5 Z"/></g>
<g><path style="opacity:0.039" fill="#939190" d="M 372.5,153.5 C 370.901,157.572 371.568,161.239 374.5,164.5C 373.178,164.67 372.011,164.337 371,163.5C 370.833,161.833 370.667,160.167 370.5,158.5C 370.556,156.36 371.223,154.694 372.5,153.5 Z"/></g>
<g><path style="opacity:0.176" fill="#938f91" d="M 417.5,142.5 C 421.558,150.616 422.225,158.949 419.5,167.5C 419.546,159.102 418.88,150.769 417.5,142.5 Z"/></g>
<g><path style="opacity:0.188" fill="#9f9b9c" d="M 458.5,152.5 C 460.625,155.088 461.958,158.088 462.5,161.5C 459.659,159.36 458.326,156.36 458.5,152.5 Z"/></g>
<g><path style="opacity:0.873" fill="#b3aead" d="M 97.5,156.5 C 95.0107,163.472 92.0107,170.139 88.5,176.5C 89.1789,172.125 90.1789,167.792 91.5,163.5C 92.8185,160.495 94.8185,158.162 97.5,156.5 Z"/></g>
<g><path style="opacity:0.765" fill="#b1abaf" d="M 389.5,156.5 C 392.121,162.59 390.121,165.923 383.5,166.5C 387.008,164.164 389.008,160.831 389.5,156.5 Z"/></g>
<g><path style="opacity:0.88" fill="#c2bec0" d="M 155.5,161.5 C 155.519,164.659 154.352,167.326 152,169.5C 148.924,168.712 145.758,168.212 142.5,168C 140.624,167.082 139.624,165.582 139.5,163.5C 145.575,167.964 150.908,167.298 155.5,161.5 Z"/></g>
<g><path style="opacity:0.408" fill="#a5a2a1" d="M 462.5,161.5 C 464.4,164.518 465.733,167.851 466.5,171.5C 463.433,168.985 462.099,165.651 462.5,161.5 Z"/></g>
<g><path style="opacity:0.235" fill="#bab3b4" d="M 239.5,180.5 C 236.941,180.198 234.607,180.532 232.5,181.5C 214.83,181.333 197.164,181.5 179.5,182C 178.672,183.992 177.339,185.492 175.5,186.5C 175.884,184.071 176.551,181.737 177.5,179.5C 198.34,179.169 219.007,179.503 239.5,180.5 Z"/></g>
<g><path style="opacity:0.18" fill="#8d8b8b" d="M 442.5,181.5 C 444.308,182.918 444.975,184.918 444.5,187.5C 443.542,185.698 442.875,183.698 442.5,181.5 Z"/></g>
<g><path style="opacity:0.263" fill="#b3afaf" d="M 466.5,172.5 C 468.591,177.191 469.924,182.191 470.5,187.5C 467.916,182.95 466.583,177.95 466.5,172.5 Z"/></g>
<g><path style="opacity:0.71" fill="#c8c4c4" d="M 418.5,170.5 C 415.001,181.999 407.668,189.999 396.5,194.5C 397.743,192.422 399.41,190.588 401.5,189C 402.448,188.517 403.448,188.351 404.5,188.5C 404.119,186.058 404.786,185.391 406.5,186.5C 407.281,185.271 407.781,183.938 408,182.5C 408.333,182.833 408.667,183.167 409,183.5C 412.283,181.189 411.783,179.689 407.5,179C 409.235,178.349 410.902,178.515 412.5,179.5C 414.27,178.18 414.603,176.68 413.5,175C 415.037,173.293 416.704,171.793 418.5,170.5 Z"/></g>
<g><path style="opacity:0.035" fill="#606060" d="M 445.5,190.5 C 447.04,192.838 447.706,195.505 447.5,198.5C 446.232,196.095 445.565,193.428 445.5,190.5 Z"/></g>
<g><path style="opacity:0.518" fill="#b6b3b3" d="M 125.5,191.5 C 129.684,191.592 133.017,193.259 135.5,196.5C 131.58,195.873 128.247,194.207 125.5,191.5 Z"/></g>
<g><path style="opacity:0.876" fill="#b8b4b4" d="M 168.5,191.5 C 164.786,194.69 160.453,196.857 155.5,198C 149.833,198.667 144.167,198.667 138.5,198C 137.263,197.768 136.263,197.268 135.5,196.5C 139.846,196.666 144.179,196.499 148.5,196C 150.536,194.694 152.536,194.527 154.5,195.5C 158.927,193.318 163.594,191.985 168.5,191.5 Z"/></g>
<g><path style="opacity:0.367" fill="#aca5a5" d="M 363.5,194.5 C 369.249,195.611 375.082,196.278 381,196.5C 386.362,196.554 391.529,195.888 396.5,194.5C 391.729,197.638 386.396,198.971 380.5,198.5C 374.312,198.868 368.645,197.535 363.5,194.5 Z"/></g>
<g><path style="opacity:0.51" fill="#bbb8b5" d="M 470.5,187.5 C 472.834,192.817 474.167,198.484 474.5,204.5C 471.609,199.432 470.275,193.765 470.5,187.5 Z"/></g>
<g><path style="opacity:0.4" fill="#9f9a97" d="M 88.5,176.5 C 79.5709,204.863 76.5709,233.863 79.5,263.5C 79.1667,263.5 78.8333,263.5 78.5,263.5C 74.997,239.651 76.1636,215.985 82,192.5C 83.913,186.896 86.0797,181.563 88.5,176.5 Z"/></g>
<g><path style="opacity:0.229" fill="#b4b0b0" d="M 363.5,194.5 C 356.952,191.614 351.618,187.281 347.5,181.5C 329.007,180.503 310.341,180.17 291.5,180.5C 291.5,181.5 291.5,182.5 291.5,183.5C 292.659,244.459 292.826,305.459 292,366.5C 289.519,368.314 286.685,368.98 283.5,368.5C 283.667,381.504 283.5,394.504 283,407.5C 282.163,409.844 280.829,411.844 279,413.5C 278.503,416.146 278.336,418.813 278.5,421.5C 276.643,419.739 275.643,417.406 275.5,414.5C 275.809,411.508 277.476,410.175 280.5,410.5C 280.838,408.146 281.338,405.813 282,403.5C 282.333,391.5 282.667,379.5 283,367.5C 285.381,366.565 287.881,366.232 290.5,366.5C 290.5,304.167 290.5,241.833 290.5,179.5C 310.169,179.333 329.836,179.5 349.5,180C 351.692,185.025 355.359,188.525 360.5,190.5C 361.826,191.642 362.826,192.976 363.5,194.5 Z"/></g>
<g><path style="opacity:0.02" fill="#676161" d="M 347.5,181.5 C 328.598,180.866 309.931,181.533 291.5,183.5C 291.5,182.5 291.5,181.5 291.5,180.5C 310.341,180.17 329.007,180.503 347.5,181.5 Z"/></g>
<g><path style="opacity:0.29" fill="#9e9696" d="M 474.5,204.5 C 475.795,208.267 476.461,212.267 476.5,216.5C 474.577,212.971 473.911,208.971 474.5,204.5 Z"/></g>
<g><path style="opacity:0.096" fill="#cec9c9" d="M 449.5,274.5 C 453.774,249.044 453.108,223.711 447.5,198.5C 447.706,195.505 447.04,192.838 445.5,190.5C 444.596,189.791 444.263,188.791 444.5,187.5C 445.117,187.389 445.617,187.056 446,186.5C 446.543,188.631 447.376,190.631 448.5,192.5C 453.851,219.384 454.684,246.384 451,273.5C 450.617,274.056 450.117,274.389 449.5,274.5 Z"/></g>
<g><path style="opacity:0.098" fill="#b3abac" d="M 232.5,181.5 C 234.607,180.532 236.941,180.198 239.5,180.5C 239.5,242.833 239.5,305.167 239.5,367.5C 238.501,305.669 238.168,243.669 238.5,181.5C 236.5,181.5 234.5,181.5 232.5,181.5 Z"/></g>
<g><path style="opacity:0.533" fill="#cec9ca" d="M 63.5,172.5 C 61.5311,184.955 59.0311,197.622 56,210.5C 55.0321,217.631 54.5321,224.798 54.5,232C 55.0168,238.977 55.0168,245.81 54.5,252.5C 55.6741,266.942 57.3407,281.276 59.5,295.5C 52.8511,270.034 50.6844,244.034 53,217.5C 54.4631,209.185 55.7965,200.852 57,192.5C 58.5001,185.502 60.6668,178.835 63.5,172.5 Z"/></g>
<g><path style="opacity:0.376" fill="#a4a1a0" d="M 477.5,253.5 C 477.602,261.772 476.602,269.772 474.5,277.5C 474.406,271.145 474.74,264.812 475.5,258.5C 475.556,256.36 476.223,254.694 477.5,253.5 Z"/></g>
<g><path style="opacity:0.941" fill="#bbb4b4" d="M 474.5,278.5 C 472.077,292.755 468.077,306.421 462.5,319.5C 462.338,317.473 462.505,315.473 463,313.5C 464.791,308.067 466.791,302.734 469,297.5C 467.698,290.242 469.531,283.909 474.5,278.5 Z"/></g>
<g><path style="opacity:0.537" fill="#a09b9b" d="M 448.5,275.5 C 449.124,275.917 449.457,276.584 449.5,277.5C 448.716,282.254 447.383,286.587 445.5,290.5C 446.341,285.468 447.341,280.468 448.5,275.5 Z"/></g>
<g><path style="opacity:0.568" fill="#cecacb" d="M 239.5,180.5 C 240.499,242.331 240.832,304.331 240.5,366.5C 242.833,366.5 245.167,366.5 247.5,366.5C 247.009,381.264 247.676,395.93 249.5,410.5C 247.306,408.779 246.139,406.445 246,403.5C 245.5,391.838 245.333,380.171 245.5,368.5C 243.265,368.795 241.265,368.461 239.5,367.5C 239.5,305.167 239.5,242.833 239.5,180.5 Z"/></g>
<g><path style="opacity:0.949" fill="#bcb8b6" d="M 78.5,263.5 C 78.8333,263.5 79.1667,263.5 79.5,263.5C 81.6823,276.571 84.6823,289.571 88.5,302.5C 88.2408,307.41 89.9075,311.41 93.5,314.5C 96.4195,320.008 99.0862,325.674 101.5,331.5C 98.3662,329.391 96.5329,326.391 96,322.5C 92.8251,318.81 90.1585,314.81 88,310.5C 86.5923,300.869 84.259,291.536 81,282.5C 79.5797,276.235 78.7464,269.902 78.5,263.5 Z"/></g>
<g><path style="opacity:0.243" fill="#959292" d="M 88.5,302.5 C 90.6787,306.203 92.3454,310.203 93.5,314.5C 89.9075,311.41 88.2408,307.41 88.5,302.5 Z"/></g>
<g><path style="opacity:0.329" fill="#b7b2b1" d="M 445.5,290.5 C 445.665,294.182 445.499,297.848 445,301.5C 440.791,310.616 436.291,319.616 431.5,328.5C 431.043,329.298 430.376,329.631 429.5,329.5C 432.511,323.634 435.345,317.634 438,311.5C 440.235,304.288 442.735,297.288 445.5,290.5 Z"/></g>
<g><path style="opacity:0.439" fill="#aeabac" d="M 462.5,320.5 C 461.341,324.151 459.674,327.485 457.5,330.5C 456.916,325.855 458.583,322.522 462.5,320.5 Z"/></g>
<g><path style="opacity:0.329" fill="#b7b1b3" d="M 429.5,329.5 C 429.174,332.311 428.341,334.978 427,337.5C 426.329,338.252 425.496,338.586 424.5,338.5C 425.774,335.24 427.44,332.24 429.5,329.5 Z"/></g>
<g><path style="opacity:0.643" fill="#c0bcbd" d="M 71.5,328.5 C 74.2373,331.635 76.7373,334.968 79,338.5C 80.5489,341.312 81.3822,344.312 81.5,347.5C 77.3354,341.651 74.0021,335.318 71.5,328.5 Z"/></g>
<g><path style="opacity:0.235" fill="#a5a1a1" d="M 456.5,332.5 C 453.18,341.147 448.846,349.147 443.5,356.5C 443.351,352.253 444.851,348.92 448,346.5C 450.681,342.472 452.848,338.138 454.5,333.5C 455.183,333.137 455.85,332.804 456.5,332.5 Z"/></g>
<g><path style="opacity:0.467" fill="#afacae" d="M 419.5,346.5 C 419.391,350.606 417.391,353.273 413.5,354.5C 414.529,351.109 416.529,348.443 419.5,346.5 Z"/></g>
<g><path style="opacity:0.161" fill="#aaa7a8" d="M 81.5,347.5 C 84.9478,349.386 86.6144,352.386 86.5,356.5C 84.5832,353.669 82.9166,350.669 81.5,347.5 Z"/></g>
<g><path style="opacity:0.875" fill="#a8a5a6" d="M 443.5,356.5 C 440.645,361.557 437.312,366.223 433.5,370.5C 434.536,368.609 434.536,366.776 433.5,365C 437.131,363.855 438.964,361.355 439,357.5C 439.333,357.833 439.667,358.167 440,358.5C 440.71,357.027 441.876,356.36 443.5,356.5 Z"/></g>
<g><path style="opacity:0.714" fill="#afacad" d="M 86.5,356.5 C 89.4841,356.787 90.8174,358.454 90.5,361.5C 91.5,361.5 92.5,361.5 93.5,361.5C 94.1667,364.167 94.8333,366.833 95.5,369.5C 92.1427,365.465 89.1427,361.132 86.5,356.5 Z"/></g>
<g><path style="opacity:0.055" fill="#5c5c5c" d="M 123.5,362.5 C 124.906,362.973 125.573,363.973 125.5,365.5C 124.094,365.027 123.427,364.027 123.5,362.5 Z"/></g>
<g><path style="opacity:0.075" fill="#595858" d="M 406.5,362.5 C 405.581,365.089 403.914,367.089 401.5,368.5C 402.419,365.911 404.086,363.911 406.5,362.5 Z"/></g>
<g><path style="opacity:0.98" fill="#cac7c7" d="M 95.5,369.5 C 97.5824,369.472 99.4157,370.139 101,371.5C 101.333,371.167 101.667,370.833 102,370.5C 101.007,373.531 102.007,375.864 105,377.5C 105.608,379.154 106.108,380.821 106.5,382.5C 102.487,378.485 98.8207,374.152 95.5,369.5 Z"/></g>
<g><path style="opacity:0.969" fill="#d9d8d5" d="M 112.5,348.5 C 116.136,353.142 119.803,357.809 123.5,362.5C 123.427,364.027 124.094,365.027 125.5,365.5C 129.833,369.167 133.833,373.167 137.5,377.5C 134.181,376.11 130.848,374.61 127.5,373C 128.731,371.817 128.731,370.651 127.5,369.5C 124.369,367.734 122.036,365.234 120.5,362C 119.552,361.517 118.552,361.351 117.5,361.5C 117.338,359.176 116.172,357.509 114,356.5C 113.178,353.883 112.678,351.216 112.5,348.5 Z"/></g>
<g><path style="opacity:0.749" fill="#aba6a7" d="M 433.5,370.5 C 432.581,373.089 430.914,375.089 428.5,376.5C 427.887,372.488 429.554,370.488 433.5,370.5 Z"/></g>
<g><path style="opacity:0.892" fill="#c9c5c6" d="M 428.5,376.5 C 425.208,381.46 421.208,385.793 416.5,389.5C 417.833,386.5 419.167,383.5 420.5,380.5C 421.5,380.5 422.5,380.5 423.5,380.5C 423.384,377.09 425.05,375.756 428.5,376.5 Z"/></g>
<g><path style="opacity:0.239" fill="#cbc7c7" d="M 106.5,382.5 C 112.833,385.5 117.5,390.167 120.5,396.5C 115.5,392.167 110.833,387.5 106.5,382.5 Z"/></g>
<g><path style="opacity:0.275" fill="#c1bfbd" d="M 157.5,393.5 C 161.382,395.934 165.048,398.601 168.5,401.5C 165.749,401.472 163.415,400.472 161.5,398.5C 160.522,398.977 159.689,399.643 159,400.5C 158.56,398.134 158.06,395.801 157.5,393.5 Z"/></g>
<g><path style="opacity:0.871" fill="#cac8c9" d="M 377.5,390.5 C 377.719,391.675 377.386,392.675 376.5,393.5C 371.829,397.508 366.495,400.175 360.5,401.5C 365.892,397.447 371.559,393.78 377.5,390.5 Z"/></g>
<g><path style="opacity:0.306" fill="#a4a09e" d="M 238.5,412.5 C 234.3,410.15 229.967,407.983 225.5,406C 222.833,405.833 220.167,405.667 217.5,405.5C 212.296,405.771 207.296,406.771 202.5,408.5C 203.975,406.59 205.975,405.424 208.5,405C 215.878,403.335 223.211,403.669 230.5,406C 233.787,407.467 236.454,409.634 238.5,412.5 Z"/></g>
<g><path style="opacity:0.353" fill="#a29f9e" d="M 171.5,402.5 C 179.697,407.265 188.363,410.931 197.5,413.5C 196.903,414.139 196.07,414.472 195,414.5C 188.199,413.355 182.199,410.689 177,406.5C 176.667,406.833 176.333,407.167 176,407.5C 173.94,406.239 172.44,404.572 171.5,402.5 Z"/></g>
<g><path style="opacity:0.624" fill="#b9b6b6" d="M 406.5,399.5 C 400.792,404.542 394.792,409.209 388.5,413.5C 389.098,409.56 391.098,407.56 394.5,407.5C 393.5,405.167 394.167,404.5 396.5,405.5C 398.416,403.582 400.416,401.748 402.5,400C 403.793,399.51 405.127,399.343 406.5,399.5 Z"/></g>
<g><path style="opacity:0.49" fill="#979495" d="M 352.5,405.5 C 350.107,408.861 346.773,410.527 342.5,410.5C 345.515,408.326 348.849,406.659 352.5,405.5 Z"/></g>
<g><path style="opacity:0.384" fill="#abaaab" d="M 134.5,408.5 C 135.873,408.343 137.207,408.51 138.5,409C 141.039,411.37 143.372,413.87 145.5,416.5C 141.648,414.075 137.981,411.409 134.5,408.5 Z"/></g>
<g><path style="opacity:0.753" fill="#9d9a9b" d="M 387.5,414.5 C 385.206,416.653 382.54,418.32 379.5,419.5C 379.694,417.088 381.027,416.088 383.5,416.5C 383.281,415.325 383.614,414.325 384.5,413.5C 385.417,414.127 386.417,414.461 387.5,414.5 Z"/></g>
<g><path style="opacity:0.137" fill="#a9a7a8" d="M 249.5,411.5 C 251.411,411.574 252.578,412.574 253,414.5C 253.498,417.817 253.665,421.15 253.5,424.5C 252.681,421.695 252.181,418.695 252,415.5C 251.338,414.016 250.504,412.683 249.5,411.5 Z"/></g>
<g><path style="opacity:0.133" fill="#6f6e6c" d="M 310.5,421.5 C 308.22,423.223 305.553,423.889 302.5,423.5C 304.961,422.469 307.627,421.802 310.5,421.5 Z"/></g>
<g><path style="opacity:0.937" fill="#c8c6c7" d="M 158.5,424.5 C 161.48,424.62 164.313,425.287 167,426.5C 167.333,426.167 167.667,425.833 168,425.5C 169.487,426.253 169.654,427.086 168.5,428C 169.623,429.044 170.956,429.71 172.5,430C 173.252,430.671 173.586,431.504 173.5,432.5C 168.016,430.593 163.016,427.927 158.5,424.5 Z"/></g>
<g><path style="opacity:0.933" fill="#ddd9d8" d="M 342.5,410.5 C 342.586,411.496 342.252,412.329 341.5,413C 338.134,413.705 335.634,415.539 334,418.5C 332.984,417.366 332.317,417.699 332,419.5C 329.581,418.544 327.081,418.544 324.5,419.5C 316.47,421.899 308.47,424.399 300.5,427C 295.038,428.189 289.705,428.689 284.5,428.5C 282.625,427.591 281.292,426.257 280.5,424.5C 287.893,425.791 295.226,425.457 302.5,423.5C 305.553,423.889 308.22,423.223 310.5,421.5C 321.551,418.975 332.218,415.309 342.5,410.5 Z"/></g>
<g><path style="opacity:0.29" fill="#6e6c6c" d="M 367.5,426.5 C 364.992,428.924 361.992,430.59 358.5,431.5C 360.797,428.812 363.797,427.146 367.5,426.5 Z"/></g>
<g><path style="opacity:0.173" fill="#575757" d="M 256.5,435.5 C 258.048,435.821 258.715,436.821 258.5,438.5C 257.599,437.71 256.932,436.71 256.5,435.5 Z"/></g>
<g><path style="opacity:0.157" fill="#747374" d="M 258.5,438.5 C 261.089,439.419 263.089,441.086 264.5,443.5C 264.5,443.833 264.5,444.167 264.5,444.5C 262.167,442.833 260.167,440.833 258.5,438.5 Z"/></g>
<g><path style="opacity:0.039" fill="#646262" d="M 189.5,439.5 C 192.292,440.392 193.625,442.392 193.5,445.5C 192.18,443.537 190.846,441.537 189.5,439.5 Z"/></g>
<g><path style="opacity:0.396" fill="#c3bcbc" d="M 241.5,417.5 C 249.545,431.675 247.212,444.009 234.5,454.5C 234.302,451.23 235.802,449.23 239,448.5C 243.718,441.5 245.218,433.833 243.5,425.5C 242.811,423.647 241.478,422.481 239.5,422C 241.107,420.951 241.773,419.451 241.5,417.5 Z"/></g>
<g><path style="opacity:0.498" fill="#cac4c6" d="M 338.5,439.5 C 325.215,445.491 311.215,449.324 296.5,451C 284.923,452.718 274.256,450.552 264.5,444.5C 264.5,444.167 264.5,443.833 264.5,443.5C 266.124,443.64 267.29,442.973 268,441.5C 270.281,445.114 273.448,447.614 277.5,449C 292.178,449.95 306.512,448.283 320.5,444C 320.167,443.667 319.833,443.333 319.5,443C 321.462,441.4 323.628,441.233 326,442.5C 329.736,439.923 333.903,438.923 338.5,439.5 Z"/></g>
<g><path style="opacity:0.796" fill="#b7b1b4" d="M 200.5,453.5 C 204.468,453.477 207.468,455.144 209.5,458.5C 205.728,458.116 202.728,456.45 200.5,453.5 Z"/></g>
</svg>
