<!--?xml version="1.0" standalone="no"?-->
              <svg id="sw-js-blob-svg" viewBox="0 0 100 100" xmlns="http://www.w3.org/2000/svg" version="1.1">
                    <defs> 
                        <linearGradient id="sw-gradient" x1="0" x2="1" y1="1" y2="0">
                            <stop id="stop1" stop-color="rgba(10.314, 165.138, 131.048, 0.79)" offset="0%"></stop>
                            <stop id="stop2" stop-color="rgba(8.054, 157.418, 124.531, 0.45)" offset="100%"></stop>
                        </linearGradient>
                    </defs>
                <path fill="url(#sw-gradient)" d="M25.4,-34.1C29.4,-26.9,26.7,-15.6,26.8,-6C27,3.5,29.8,11.2,27.6,16.6C25.3,22,17.8,25.1,10.7,26.4C3.7,27.6,-2.9,26.9,-9,24.6C-15,22.4,-20.5,18.7,-27,13C-33.5,7.2,-40.9,-0.7,-40,-7.2C-39,-13.7,-29.6,-18.9,-21.5,-25.4C-13.5,-32,-6.7,-39.9,2,-42.2C10.7,-44.6,21.4,-41.4,25.4,-34.1Z" width="100%" height="100%" transform="translate(50 50)" stroke-width="0" style="transition: 0.3s;"></path>
              </svg>