<!--?xml version="1.0" standalone="no"?-->
              <svg id="sw-js-blob-svg" viewBox="0 0 100 100" xmlns="http://www.w3.org/2000/svg" version="1.1">
                    <defs> 
                        <linearGradient id="sw-gradient" x1="0" x2="1" y1="1" y2="0">
                            <stop id="stop1" stop-color="rgba(248, 117, 55, 1)" offset="0%"></stop>
                            <stop id="stop2" stop-color="rgba(251, 168, 31, 1)" offset="100%"></stop>
                        </linearGradient>
                    </defs>
                <path fill="url(#sw-gradient)" d="M19.1,-25.7C21.7,-20.6,18.6,-11.7,20.8,-3.1C23,5.5,30.4,13.7,30.1,20.3C29.7,26.9,21.6,31.8,13.1,34C4.7,36.2,-4,35.6,-8.3,30.6C-12.6,25.7,-12.5,16.4,-13.3,10C-14.2,3.7,-16.2,0.2,-15.2,-2.3C-14.3,-4.8,-10.5,-6.4,-7.5,-11.4C-4.5,-16.4,-2.2,-24.9,3,-28.5C8.3,-32,16.5,-30.8,19.1,-25.7Z" width="100%" height="100%" transform="translate(50 50)" stroke-width="0" style="transition: 0.3s;"></path>
              </svg>