<!--?xml version="1.0" standalone="no"?-->
              <svg id="sw-js-blob-svg" viewBox="0 0 100 100" xmlns="http://www.w3.org/2000/svg" version="1.1">
                    <defs> 
                        <linearGradient id="sw-gradient" x1="0" x2="1" y1="1" y2="0">
                            <stop id="stop1" stop-color="rgba(19.424, 9.271, 1.213, 1)" offset="0%"></stop>
                            <stop id="stop2" stop-color="rgba(251.656, 112.987, 2.93, 1)" offset="100%"></stop>
                        </linearGradient>
                    </defs>
                <path fill="url(#sw-gradient)" d="M26,-34.7C33.1,-30.7,37.7,-22.2,39.2,-13.7C40.6,-5.2,38.8,3.4,36.5,12.2C34.1,20.9,31.1,29.9,25,33.9C18.8,38,9.4,37.2,0.8,36.1C-7.9,35.1,-15.8,33.8,-21.5,29.6C-27.3,25.5,-30.9,18.3,-34.8,10.4C-38.8,2.4,-43,-6.5,-41.2,-13.9C-39.5,-21.2,-31.7,-27.1,-23.8,-30.8C-16,-34.6,-8,-36.2,0.7,-37.3C9.5,-38.3,18.9,-38.7,26,-34.7Z" width="100%" height="100%" transform="translate(50 50)" stroke-width="0" style="transition: 0.3s;"></path>
              </svg>